<svg width="19" height="26" viewBox="0 0 19 26" fill="none" xmlns="http://www.w3.org/2000/svg">
<g clip-path="url(#clip0_325_90)">
<path d="M9.78813 13.5434C10.4746 15.7481 9.98727 17.7761 8.88346 19.8401C8.57223 18.5227 8.44914 17.2352 7.55648 16.0835C7.52546 16.5525 7.55048 16.9118 7.47042 17.2462C7.26227 18.1155 7.09614 19.0107 6.75489 19.8291C5.94329 21.7753 6.06038 23.6516 6.95404 25.5189C7.01008 25.6367 7.05812 25.7585 7.16319 26C6.73288 25.8393 6.39763 25.7275 6.07239 25.5918C2.89905 24.2594 0.865552 21.9629 0.17104 18.5656C-0.221249 16.6453 0.0779718 14.792 0.859548 13.0135C1.48701 11.5853 2.25958 10.216 2.5598 8.66101C2.65987 8.14602 2.77596 7.63403 2.88504 7.12003C2.93908 7.10806 2.99412 7.09608 3.04816 7.0841C3.48148 8.05919 3.9148 9.03428 4.36813 10.0523C6.53873 7.08011 7.62854 3.76162 7.73461 0C11.2202 2.10088 13.2957 5.07904 14.1654 9.02629C15.049 7.79671 15.1331 6.47031 15.101 5.04011C15.2311 5.14391 15.3132 5.18882 15.3672 5.25669C17.711 8.20391 19.118 11.5234 18.9929 15.3199C18.8298 20.3042 16.2979 23.7833 11.8196 25.9042C11.7776 25.9241 11.7256 25.9212 11.5814 25.9451C13.9452 21.3541 13.3347 17.2292 9.78813 13.5434Z" fill="#133960"/>
</g>
<defs>
<clipPath id="clip0_325_90">
<rect width="19" height="26" fill="white"/>
</clipPath>
</defs>
</svg>
