<svg xmlns="http://www.w3.org/2000/svg" xmlns:xlink="http://www.w3.org/1999/xlink" viewBox="0 0 151 193.91"><defs><style>.cls-1,.cls-14,.cls-8{isolation:isolate;}.cls-2{fill:url(#linear-gradient);}.cls-3{fill:#90278e;}.cls-10,.cls-15,.cls-4,.cls-7{mix-blend-mode:multiply;}.cls-4{fill:url(#linear-gradient-2);}.cls-5{fill:url(#linear-gradient-3);}.cls-6{fill:url(#linear-gradient-4);}.cls-7{fill:url(#linear-gradient-5);}.cls-14,.cls-8{opacity:0.66;}.cls-9{fill:#fff;}.cls-14,.cls-15,.cls-9{fill-opacity:0.98;}.cls-10{fill:url(#radial-gradient);}.cls-11{opacity:0.5;}.cls-12{fill:url(#linear-gradient-6);}.cls-13{fill:url(#linear-gradient-7);}.cls-15{fill:#bfbebe;}</style><linearGradient id="linear-gradient" x1="-776.43" y1="435.16" x2="-771.18" y2="601.18" gradientTransform="matrix(1.63, 0, 0, -1.66, 1339.04, 982.29)" gradientUnits="userSpaceOnUse"><stop offset="0"/><stop offset="0.22" stop-color="#fff" stop-opacity="0"/><stop offset="1" stop-opacity="0"/></linearGradient><linearGradient id="linear-gradient-2" x1="-15.51" y1="304.8" x2="-19.51" y2="148.96" gradientTransform="matrix(1, 0, 0, -1, 93.8, 311.51)" gradientUnits="userSpaceOnUse"><stop offset="0" stop-color="#4d4e4e"/><stop offset="1" stop-color="#4d4e4e" stop-opacity="0"/></linearGradient><linearGradient id="linear-gradient-3" x1="-15.87" y1="324.06" x2="-21.11" y2="243.08" gradientTransform="matrix(1, 0, 0, -1, 93.8, 311.51)" gradientUnits="userSpaceOnUse"><stop offset="0" stop-color="#fff"/><stop offset="1" stop-color="#fff" stop-opacity="0"/></linearGradient><linearGradient id="linear-gradient-4" x1="-789.87" y1="418.69" x2="-788.3" y2="364.7" gradientTransform="translate(1385.68 -465.65) scale(1.66)" xlink:href="#linear-gradient-3"/><linearGradient id="linear-gradient-5" x1="-19.38" y1="331.19" x2="-18.53" y2="239.28" gradientTransform="matrix(1, 0, 0, -1, 93.8, 311.51)" xlink:href="#linear-gradient"/><radialGradient id="radial-gradient" cx="-989.23" cy="422.94" r="38.26" gradientTransform="matrix(2.38, 0, 0, -0.86, 2422.41, 547.49)" gradientUnits="userSpaceOnUse"><stop offset="0" stop-color="#b6b9ba"/><stop offset="0.07" stop-color="#b8bbbc" stop-opacity="0.97"/><stop offset="0.17" stop-color="#bec1c2" stop-opacity="0.89"/><stop offset="0.27" stop-color="#c8cbcb" stop-opacity="0.75"/><stop offset="0.38" stop-color="#d6d8d9" stop-opacity="0.56"/><stop offset="0.5" stop-color="#e9eaea" stop-opacity="0.31"/><stop offset="0.62" stop-color="#fefefe" stop-opacity="0.01"/><stop offset="0.62" stop-color="#fff" stop-opacity="0"/></radialGradient><linearGradient id="linear-gradient-6" x1="-43.21" y1="197.35" x2="80.73" y2="197.35" gradientTransform="matrix(1, 0, 0, -1, -6.6, 376.11)" gradientUnits="userSpaceOnUse"><stop offset="0" stop-color="#f6f7f8"/><stop offset="1" stop-color="#f6f7f8" stop-opacity="0"/></linearGradient><linearGradient id="linear-gradient-7" x1="206.96" y1="197.35" x2="83.02" y2="197.35" xlink:href="#linear-gradient-6"/></defs><title>template frame and textbox</title><g class="cls-1"><g id="Layer_1" data-name="Layer 1"><path class="cls-2" d="M8.41,1.77A1.14,1.14,0,0,0,7.28,2.93L5.66,187.4v4.3a1.13,1.13,0,0,0,1.13,1.14H144.11a1.14,1.14,0,0,0,1.14-1.14V2.93a1.15,1.15,0,0,0-1.14-1.16Zm9.22,8.15h117a1.14,1.14,0,0,1,1.13,1.15V184.16a1.12,1.12,0,0,1-1.13,1.14h-117a1.12,1.12,0,0,1-1.13-1.14V11.07a1.14,1.14,0,0,1,1.13-1.15Z"/><path class="cls-3" d="M6.8.09A1.14,1.14,0,0,0,5.66,1.25V190.3a1.14,1.14,0,0,0,1.14,1.15H144.12a1.14,1.14,0,0,0,1.15-1.15V1.25A1.15,1.15,0,0,0,144.12.09Zm9.33,8.18H134.49a1.14,1.14,0,0,1,1.14,1.16V182.74a1.14,1.14,0,0,1-1.14,1.15H16.13A1.14,1.14,0,0,1,15,182.74V9.43a1.14,1.14,0,0,1,1.14-1.16Z"/><path class="cls-4" d="M141,2c-23.34.14-47.21,0-70.55,0q-31.08,0-62.18.06a23.37,23.37,0,0,1,.07,4.18c0,26.43-.11,156.77.08,183.19a35.84,35.84,0,0,1,4.86-.06c43.29-.05,87.11.09,130.39-.08a35.89,35.89,0,0,1-.07-4.75c-.07-26.24.14-156.38-.11-182.62L141,2ZM17.14,6.21c22.5.15,45,0,67.52.06,16.91,0,34.36-.09,51.26.18,2,.78,2.41,3.35,2.1,5.28-.14,22.74.24,149.4-.2,172.12-.85,2.05-3.44,2.36-5.37,2-38.64-.07-77.81.15-116.43-.11-2-.53-2.63-3-2.35-4.86.23-22.92-.28-149.76.27-172.68a3.43,3.43,0,0,1,3.2-2Z"/><path class="cls-5" d="M143.61.54c-9.21.23-18.43,0-27.65.09C79.62.65,42.73.57,6.39.68c-.77,1.11.19,2.64-.2,3.91V36.83c2.51,1.11,5,2.22,7.59,3.2.12-6.33-.31-25.61.22-31.91,1.34-2,4-.77,6-1.12,38.25,0,77.05-.07,115.3.07,2.25.73,1.42,3.52,1.53,5.29V51.93c2.64-.18,5.26-.41,7.89-.65-.1-12.55.2-38.06-.15-50.57a1.55,1.55,0,0,0-1-.16Z"/><path class="cls-6" d="M137.21,178.84c0,1.86.53,4.33-1.24,5.59-1.56.92-3.46.21-5.17.44-36.9.12-74.35,0-111.25,0-2-.23-4.48.73-6.09-.91-1.07-1.17-.48-2.88-.75-4.3-.18-4.86,0-9.72,0-14.58-2.07.83-4.1,1.71-6.14,2.61,0,6.71,0,13.46.06,20.15a9.36,9.36,0,0,0,.08,1.89c43.84.13,88,0,131.84.07,1.66,0,3.31,0,5,0,.32-12.13,0-115.27.13-127.4-2.14-.2-4.28-.39-6.43-.54V178.84Z"/><path class="cls-7" d="M13.23,5.36a1.13,1.13,0,0,0-1.1,1.16V184.74a1.13,1.13,0,0,0,1.1,1.16h2.18V10.22A1.1,1.1,0,0,1,16.48,9.1H134.36a1.1,1.1,0,0,1,1.07,1.12V185.9h2.31a1.13,1.13,0,0,0,1.11-1.16V6.52a1.13,1.13,0,0,0-1.11-1.16Z"/><path class="cls-8" d="M141,171.22c-41.5-2-84.62-2.87-131.91.05-2.32.2-3.83,1.86-3.39,3.31.1,5.51-.19,11.07.15,16.55.6,1.39,3.08,2.13,5.19,1.86,45.67-3.07,88.56-1.8,131,0,2.36-.26,3.74-2,3.28-3.41-.09-5.48.19-11-.15-16.44-.51-1.17-2.38-2-4.21-1.89Z"/><path class="cls-9" d="M12.05,167.24H138.5c2.89,0,5.23,1.59,5.23,3.57h0v16.75c0,2-2.34,3.57-5.23,3.57H12.05c-2.89,0-5.23-1.6-5.23-3.57h0V170.81c0-2,2.34-3.57,5.23-3.57"/><path class="cls-3" d="M12.05,167.24H138.5c2.89,0,5.23,1.59,5.23,3.57h0v16.75c0,2-2.34,3.57-5.23,3.57H12.05c-2.89,0-5.23-1.6-5.23-3.57h0V170.81c0-2,2.34-3.57,5.23-3.57"/><path class="cls-10" d="M138.4,168.14c-42.25.07-84.49,0-126.74.05-2.23.21-3.67,1.89-3.25,3.36.09,5.58-.18,11.21.15,16.76.57,1.41,3,2.16,5,1.89,42,0,83.94,0,125.91,0,2.27-.25,3.6-2,3.15-3.45-.09-5.55.19-11.11-.14-16.65-.49-1.18-2.29-2-4-1.92Z"/><g class="cls-11"><path class="cls-12" d="M138.17,167.71c-42.25.06-84.49,0-126.74,0-2.23.2-3.68,1.89-3.25,3.35.09,5.58-.18,11.21.14,16.77.58,1.4,3,2.16,5,1.88q63,0,125.9,0c2.28-.26,3.61-2,3.16-3.46-.09-5.55.19-11.11-.14-16.65-.49-1.18-2.29-2-4.05-1.91Z"/><path class="cls-13" d="M12.38,189.81c42.25-.06,84.5,0,126.74-.05,2.23-.2,3.68-1.89,3.25-3.35-.08-5.58.19-11.21-.14-16.77-.57-1.4-3-2.15-5-1.88q-63,0-125.9,0c-2.28.26-3.6,2-3.16,3.46.09,5.55-.19,11.11.15,16.65.48,1.18,2.28,2,4,1.91Z"/></g><path class="cls-14" d="M8.25,156.85H142.38c1.38,0,2.5.62,2.5,1.39v5.33c0,.77-1.12,1.45-2.5,1.4-40.22-1.53-89.08-2.48-134.13,0-1.37.07-2.49-.63-2.49-1.4v-5.33c0-.77,1.11-1.39,2.49-1.39Z"/><path class="cls-3" d="M8.84,153.84h133c1.18,0,2.14.64,2.14,1.44V162c0,.8-1,1.44-2.14,1.44H8.84c-1.18,0-2.14-.64-2.14-1.44v-6.74c0-.8,1-1.44,2.14-1.44h0"/><path class="cls-15" d="M9.59,154.93H140.81c1,0,1.73.51,1.73,1.15v5.44c0,.64-.77,1.16-1.73,1.16H9.59c-1,0-1.73-.52-1.73-1.16v-5.44c0-.64.77-1.15,1.73-1.15"/></g></g></svg>