<svg id="Layer_1" data-name="Layer 1" xmlns="http://www.w3.org/2000/svg" viewBox="0 0 151 193.91"><defs><style>.cls-1{fill:#9e1f63;}.cls-2{fill:#b61e7a;}.cls-3{fill:#eb008b;}</style></defs><title>frames</title><path class="cls-1" d="M136.33,7.72v178.5H14.89V7.72H136.33M143.87.17H7.35v193.6H143.87V.17Z"/><polygon class="cls-2" points="136.26 114.69 136.26 117.1 143.87 115.83 143.87 113.38 136.26 114.69"/><polygon class="cls-2" points="136.26 119.97 136.26 122.38 143.87 121.12 143.87 118.66 136.26 119.97"/><polygon class="cls-2" points="14.92 135.45 7.31 136.76 7.31 139.04 14.92 137.78 14.92 135.45"/><polygon class="cls-2" points="14.92 140.73 7.31 142.05 7.31 144.32 14.92 143.06 14.92 140.73"/><polygon class="cls-3" points="128.7 64.86 128.7 69.64 143.86 67.13 143.86 62.24 128.7 64.86"/><polygon class="cls-3" points="128.7 75.37 128.7 80.16 143.86 77.65 143.86 72.76 128.7 75.37"/><polygon class="cls-3" points="128.7 54.19 128.7 58.97 143.86 56.46 143.86 51.57 128.7 54.19"/><polygon class="cls-3" points="7.13 86.93 7.13 91.72 22.28 89.21 22.28 84.32 7.13 86.93"/><polygon class="cls-3" points="7.13 97.45 7.13 102.23 22.28 99.72 22.28 94.83 7.13 97.45"/><polygon class="cls-3" points="7.13 76.26 7.13 81.05 22.28 78.54 22.28 73.65 7.13 76.26"/></svg>