<svg id="Layer_1" data-name="Layer 1" xmlns="http://www.w3.org/2000/svg" viewBox="0 0 271 276"><defs><style>.cls-1{fill:#c82038;}.cls-2{fill:#fff;}</style></defs><title>Untitled-1</title><circle class="cls-1" cx="136.38" cy="135.89" r="62.04"/><path class="cls-2" d="M136.38,89.89a46,46,0,1,0,46,46A46,46,0,0,0,136.38,89.89ZM138,103.15l16-6.39a43.49,43.49,0,0,1,5.25,2.83l0,0a43.63,43.63,0,0,1,4.74,3.47l.13.11c.67.58,1.32,1.17,2,1.78l.24.23c.66.65,1.31,1.32,1.93,2l.16.18c.54.61,1.07,1.25,1.58,1.89l.36.46c.56.72,1.09,1.45,1.6,2.2l-3.19,13.56-15.68,5.22L138,118.65Zm-35.68,6.61.37-.46c.5-.64,1-1.26,1.56-1.87l.17-.2c.62-.69,1.26-1.36,1.93-2a2.5,2.5,0,0,1,.23-.23c.63-.6,1.28-1.19,1.94-1.76l.16-.13a43.72,43.72,0,0,1,4.68-3.45l.06,0a43.24,43.24,0,0,1,5.23-2.83l16.06,6.36v15.49l-15.11,12.09L104,125.51,100.76,112C101.27,111.21,101.8,110.48,102.35,109.76Zm-1.85,49.66q-.68-1-1.29-2.1l-.1-.17c-.41-.71-.79-1.43-1.16-2.17v0a43.12,43.12,0,0,1-2-4.75v0c-.27-.76-.52-1.55-.75-2.34l-.08-.29c-.22-.74-.41-1.49-.58-2.25a1.42,1.42,0,0,0-.05-.22,45.52,45.52,0,0,1-.81-5.19L103,128.66l15.57,5.2,4.52,18.08-7.43,9.88Zm46.09,18.17c-.76.19-1.55.35-2.34.5l-.33.06c-.67.12-1.35.22-2,.31l-.55.07c-.63.07-1.26.12-1.9.17l-.6.05c-.82.05-1.64.08-2.47.08s-1.51,0-2.26-.06l-.27,0c-.66,0-1.33-.08-2-.15h-.08q-2.17-.24-4.32-.69l-9.07-14.2,7.31-9.75h21.37l7.43,9.81Zm31.73-32.5a2.25,2.25,0,0,0,0,.22c-.18.76-.37,1.51-.58,2.25l-.08.29q-.35,1.18-.75,2.34v0a43.12,43.12,0,0,1-2,4.75v0c-.37.73-.76,1.45-1.16,2.16l-.1.17q-.62,1.08-1.29,2.1l-15.13,2.39-7.48-9.88,4.52-18.08,15.57-5.19,9.36,11.24A43.37,43.37,0,0,1,178.32,145.09Z"/></svg>