<svg xmlns="http://www.w3.org/2000/svg" xmlns:xlink="http://www.w3.org/1999/xlink" version="1.1" id="Layer_1" x="0px" y="0px" viewBox="5.0 -10.0 100.0 135.0" enable-background="new 0 0 100 100" xml:space="preserve" height="100px" width="100px">
<path id="path1983_3_" d="M50.1,4.9v7.4c0,0,0,0-0.2,0c-0.1,0-0.4,0.2-0.4,0.4c0,0.2,0,5.1,0,5.3c0,0.2-0.2,0.2-0.2,0.4  c0,0.2,0,4.6,0,4.8s-0.2,0.2-0.2,0.4c0,0.2,0,1.7,0,1.7l-1.3,3.6c0,0-0.5,0-0.7,0c-0.2,0-0.4,0.2-0.4,0.4c0,0.2,0,0.9,0,0.9  s-0.4,0-0.5,0s-0.4,0.2-0.4,0.4c0,0.2,0,5.1,0,5.1s-0.4,0-0.5,0c-0.2,0-0.4,0.2-0.4,0.4c0,0.2,0,6,0,6.2c0,0.3-0.6,0.4-0.6,0.6  c0,0.2,0,30,0,30s-0.7,0-0.9,0c-0.2,0-0.4,0.2-0.4,0.4c0,0.2,0,6.6,0,6.6s-1.8,0-2,0c-0.2,0-0.4,0.2-0.4,0.4c0,0.2,0,9.9,0,9.9  s-2.6,0-2.8,0s-0.4,0.2-0.4,0.4c0,0.2,0,4.5,0,4.5h25.9c0,0,0-4.3,0-4.5c0-0.2-0.2-0.4-0.4-0.4c-0.2,0-2.8,0-2.8,0s0-9.7,0-9.9  c0-0.2-0.2-0.4-0.4-0.4c-0.2,0-2,0-2,0s0-6.4,0-6.6c0-0.2-0.2-0.4-0.4-0.4c-0.2,0-0.9,0-0.9,0s0-29.8,0-30c0-0.2-0.6-0.3-0.6-0.6  c0-0.3,0-6.1,0-6.2c0-0.2-0.2-0.4-0.4-0.4c-0.2,0-0.5,0-0.5,0s0-5,0-5.1c0-0.2-0.2-0.4-0.4-0.4c-0.2,0-0.6,0-0.6,0s0-0.7,0-0.9  c0-0.2-0.2-0.4-0.4-0.4c-0.2,0-0.7,0-0.7,0l-1.3-3.6c0,0,0-1.5,0-1.7c0-0.2-0.2-0.2-0.2-0.4s0-4.6,0-4.8c0-0.2-0.2-0.2-0.2-0.4  c0-0.2,0-5.1,0-5.3c0-0.2-0.2-0.4-0.4-0.4s-0.2,0-0.2,0V4.9h-0.4h-0.1H50.1z"/>
<text x="0.0" y="117.5" font-size="5.0" font-weight="bold" font-family="Helvetica Neue, Helvetica, Arial-Unicode, Arial, Sans-serif" fill="#000000">Created by Lazar Nikolic</text><text x="0.0" y="122.5" font-size="5.0" font-weight="bold" font-family="Helvetica Neue, Helvetica, Arial-Unicode, Arial, Sans-serif" fill="#000000">from the Noun Project</text></svg>