<?xml version="1.0" standalone="no"?>
<!DOCTYPE svg PUBLIC "-//W3C//DTD SVG 20010904//EN"
 "http://www.w3.org/TR/2001/REC-SVG-20010904/DTD/svg10.dtd">
<svg version="1.0" xmlns="http://www.w3.org/2000/svg"
 width="256.000000pt" height="256.000000pt" viewBox="0 0 256.000000 256.000000"
 preserveAspectRatio="xMidYMid meet">

<g transform="translate(0.000000,256.000000) scale(0.100000,-0.100000)"
fill="#196373" stroke="none">
<path d="M1160 2544 c-188 -27 -313 -65 -452 -136 -198 -101 -365 -251 -485
-435 -277 -424 -271 -975 14 -1406 70 -105 240 -272 351 -345 286 -186 616
-249 954 -181 238 47 443 156 622 329 255 247 386 556 386 910 0 265 -68 490
-214 709 -200 300 -535 505 -898 551 -78 9 -223 12 -278 4z m70 -724 l0 -480
-145 0 -145 0 0 33 c0 86 -65 268 -131 364 -47 68 -134 159 -201 209 l-58 42
58 53 c104 95 246 176 377 214 62 19 185 43 223 44 l22 1 0 -480z m317 445
c158 -42 310 -123 419 -227 l53 -50 -57 -42 c-173 -128 -291 -322 -325 -531
l-12 -75 -142 0 -143 0 0 481 0 481 58 -6 c31 -4 98 -18 149 -31z m-927 -485
c99 -98 158 -200 190 -326 33 -127 62 -114 -260 -114 l-280 0 0 29 c0 124 75
339 167 477 l36 54 31 -18 c17 -9 69 -55 116 -102z m1575 -45 c57 -115 92
-227 102 -332 l6 -63 -282 0 -283 0 7 43 c29 187 148 380 297 480 l53 35 22
-26 c13 -15 48 -76 78 -137z m-1365 -533 c0 -11 -9 -53 -20 -96 -40 -157 -147
-314 -276 -402 l-56 -39 -29 35 c-73 87 -161 316 -175 455 l-7 65 282 0 c266
0 281 -1 281 -18z m400 -462 l0 -480 -42 6 c-244 33 -430 116 -588 261 l-52
48 56 39 c76 52 176 160 226 245 52 87 98 217 106 300 l7 61 143 0 144 0 0
-480z m400 454 c0 -52 33 -172 71 -252 65 -142 166 -263 278 -337 l44 -29 -53
-49 c-157 -144 -383 -244 -585 -259 l-40 -3 -3 478 -2 477 145 0 145 0 0 -26z
m666 -38 c-14 -139 -73 -302 -154 -428 -20 -32 -42 -58 -48 -58 -18 0 -125 82
-165 126 -97 109 -163 246 -184 382 l-7 42 283 0 282 0 -7 -64z"/>
</g>
</svg>
