<svg width="45" height="26" viewBox="0 0 45 26" fill="none" xmlns="http://www.w3.org/2000/svg">

<g clip-path="url(#clip0_325_89)">
<path d="M35.5867 26C35.7854 26 35.9895 26 36.1882 26C36.2311 25.9839 36.2741 25.9624 36.3224 25.9517C36.999 25.7852 37.4823 25.3878 37.6595 24.7005C37.7615 24.3031 37.8367 23.8897 37.8582 23.4762C37.9333 22.0747 37.6971 20.7 37.4501 19.3254C37.3856 18.9763 37.3158 18.6327 37.2406 18.2568C37.3588 18.2568 37.4393 18.2568 37.5252 18.2568C38.9912 18.2568 40.4625 18.2621 41.9285 18.2568C43.4964 18.2514 44.5811 16.8982 44.2106 15.4162C44.1462 15.1638 44.0227 14.9275 43.9206 14.6805C44.6026 14.2187 44.9892 13.5743 44.9892 12.742C44.9892 11.9043 44.5865 11.2599 43.8992 10.7981C44.6509 9.58994 44.2536 8.12399 43.0185 7.45814C43.2548 7.05004 43.3837 6.60434 43.3407 6.12643C43.2333 4.88601 42.2614 4.01074 41.0156 4.01074C39.2919 4.01074 37.5628 3.99463 35.8391 4.01611C35.0122 4.02685 34.1799 4.06981 33.3583 4.16109C31.8977 4.31682 30.4747 4.65511 29.0839 5.12229C28.9282 5.17598 28.8799 5.24042 28.8799 5.40151C28.8853 9.18721 28.8853 12.9729 28.8799 16.7586C28.8799 16.8982 28.9175 16.9949 29.0302 17.0808C29.8894 17.7413 30.711 18.4393 31.4305 19.2502C31.9621 19.8516 32.4454 20.4852 32.7354 21.2477C33.1274 22.2734 33.5301 23.299 33.906 24.33C34.2121 25.1569 34.69 25.7852 35.5867 26Z" fill="#133960"/>
<path d="M23 15.8188C23.145 16.2054 23.4188 16.3451 23.8323 16.3397C24.9976 16.3236 26.1682 16.3343 27.3334 16.3343C27.4086 16.3343 27.4891 16.3343 27.5751 16.3343C27.5751 12.7097 27.5751 9.1066 27.5751 5.47125C27.4945 5.47125 27.4193 5.47125 27.3442 5.47125C26.1843 5.47125 25.0244 5.48199 23.8645 5.46588C23.4511 5.46051 23.1611 5.58939 23 5.98138C23 9.26232 23 12.5379 23 15.8188Z" fill="#133960"/>
</g>
<defs>
<clipPath id="clip0_325_89">
<rect width="21.9839" height="22" fill="white" transform="matrix(1 0 0 -1 23 26)"/>
</clipPath>
</defs>
</svg>
