<svg width="22" height="22" viewBox="0 0 22 22" fill="none" xmlns="http://www.w3.org/2000/svg">
<g clip-path="url(#clip0_206_87)">
<path d="M12.5867 0C12.7854 0 12.9895 0 13.1882 0C13.2311 0.0161093 13.2741 0.0375885 13.3224 0.048328C13.999 0.214791 14.4823 0.612155 14.6595 1.29949C14.7615 1.69685 14.8367 2.11032 14.8582 2.5238C14.9333 3.92531 14.6971 5.29998 14.4501 6.67464C14.3856 7.02368 14.3158 7.36734 14.2406 7.74323C14.3588 7.74323 14.4393 7.74323 14.5252 7.74323C15.9912 7.74323 17.4625 7.73786 18.9285 7.74323C20.4964 7.7486 21.5811 9.10178 21.2106 10.5838C21.1462 10.8362 21.0227 11.0725 20.9206 11.3195C21.6026 11.7813 21.9892 12.4257 21.9892 13.258C21.9892 14.0957 21.5865 14.7401 20.8992 15.2019C21.6509 16.4101 21.2536 17.876 20.0185 18.5419C20.2548 18.95 20.3837 19.3957 20.3407 19.8736C20.2333 21.114 19.2614 21.9893 18.0156 21.9893C16.2919 21.9893 14.5628 22.0054 12.8391 21.9839C12.0122 21.9732 11.1799 21.9302 10.3583 21.8389C8.8977 21.6832 7.47471 21.3449 6.08393 20.8777C5.92821 20.824 5.87988 20.7596 5.87988 20.5985C5.88525 16.8128 5.88525 13.0271 5.87988 9.2414C5.87988 9.10178 5.91747 9.00513 6.03024 8.91921C6.8894 8.25873 7.71098 7.56065 8.43053 6.74982C8.96214 6.1484 9.44542 5.51477 9.73539 4.75226C10.1274 3.72663 10.5301 2.701 10.906 1.67C11.2121 0.843056 11.69 0.214791 12.5867 0Z" fill="#133960"/>
<path d="M0 10.1812C0.144984 9.79455 0.418843 9.65493 0.832316 9.6603C1.99756 9.67641 3.16817 9.66567 4.33341 9.66567C4.40859 9.66567 4.48914 9.66567 4.57505 9.66567C4.57505 13.2903 4.57505 16.8934 4.57505 20.5287C4.49451 20.5287 4.41933 20.5287 4.34415 20.5287C3.18428 20.5287 2.02441 20.518 0.864535 20.5341C0.451062 20.5395 0.161093 20.4106 0 20.0186C0 16.7377 0 13.4621 0 10.1812Z" fill="#133960"/>
</g>
<defs>
<clipPath id="clip0_206_87">
<rect width="21.9839" height="22" fill="white"/>
</clipPath>
</defs>
</svg>
