<?xml version="1.0" standalone="no"?>
<!DOCTYPE svg PUBLIC "-//W3C//DTD SVG 20010904//EN"
 "http://www.w3.org/TR/2001/REC-SVG-20010904/DTD/svg10.dtd">
<svg version="1.0" xmlns="http://www.w3.org/2000/svg"
 width="256.000000pt" height="256.000000pt" viewBox="0 0 256.000000 256.000000"
 preserveAspectRatio="xMidYMid meet">

<g transform="translate(0.000000,256.000000) scale(0.100000,-0.100000)"
fill="#840d23" stroke="none">
<path d="M1150 2524 c-308 -39 -552 -156 -761 -364 -160 -159 -273 -357 -331
-578 -30 -111 -31 -127 -32 -307 -1 -206 12 -282 71 -440 170 -458 588 -775
1070 -815 656 -53 1228 383 1348 1029 22 119 20 335 -4 458 -98 506 -480 890
-991 998 -74 16 -302 27 -370 19z m391 -513 c22 -21 39 -44 39 -51 0 -7 -26
-39 -57 -71 l-58 -59 -59 30 c-32 16 -68 30 -80 30 -52 1 -47 16 28 88 65 63
78 72 111 72 30 0 45 -8 76 -39z m-403 -107 l45 -27 -34 -18 c-41 -20 -135
-103 -150 -130 -12 -24 5 -59 29 -59 10 0 40 23 67 51 67 68 116 93 187 93 31
0 60 -3 64 -7 5 -4 -33 -49 -83 -100 -50 -51 -96 -102 -102 -114 -15 -30 -14
-109 3 -141 8 -15 88 -100 178 -189 152 -150 166 -162 209 -168 67 -10 105 11
214 116 l95 91 11 -28 c14 -36 5 -112 -17 -156 -21 -42 -139 -158 -229 -227
-39 -29 -119 -77 -180 -107 l-110 -54 -261 261 -262 262 -7 81 c-12 125 -8
208 9 250 23 55 224 334 244 339 31 8 35 7 80 -19z m609 -36 c24 -23 43 -51
43 -63 0 -12 -28 -49 -70 -90 l-70 -69 -65 64 -65 64 67 68 c82 82 100 85 160
26z m-33 -598 c-142 -141 -133 -142 -321 43 -80 78 -151 154 -159 169 -26 51
-18 66 88 175 l102 104 196 -196 195 -195 -101 -100z m186 394 c66 -61 65 -80
-5 -152 l-54 -57 -68 68 -68 68 62 59 c33 33 66 60 72 60 7 0 34 -21 61 -46z
m131 -233 c57 -57 55 -92 -12 -165 -28 -31 -55 -56 -60 -56 -5 0 -9 17 -9 39
0 23 -12 62 -30 97 l-30 59 35 33 c19 17 42 32 51 32 9 0 34 -17 55 -39z
m-1009 -498 c137 -137 248 -255 248 -263 0 -22 -180 -198 -210 -205 -14 -3
-39 -1 -55 5 l-28 11 36 37 c57 58 72 124 43 180 -8 15 -73 85 -144 155 -101
101 -137 130 -166 137 -51 11 -100 -4 -147 -47 -32 -29 -40 -32 -45 -19 -16
41 7 81 94 169 51 52 95 87 107 87 13 0 108 -88 267 -247z m-161 -130 c65 -64
122 -128 127 -142 12 -33 2 -59 -37 -96 l-32 -29 -155 154 -155 155 40 38 c64
59 76 55 212 -80z"/>
</g>
</svg>
