<?xml version="1.0" standalone="no"?>
<!DOCTYPE svg PUBLIC "-//W3C//DTD SVG 20010904//EN"
 "http://www.w3.org/TR/2001/REC-SVG-20010904/DTD/svg10.dtd">
<svg version="1.0" xmlns="http://www.w3.org/2000/svg"
 width="256.000000pt" height="256.000000pt" viewBox="0 0 256.000000 256.000000"
 preserveAspectRatio="xMidYMid meet">

<g transform="translate(0.000000,256.000000) scale(0.100000,-0.100000)"
fill="#cc1a36" stroke="none">
<path d="M1028 2520 c-435 -92 -788 -391 -941 -800 -56 -151 -71 -241 -72
-440 0 -203 10 -267 67 -430 108 -306 331 -560 621 -706 187 -95 356 -134 577
-134 159 0 270 17 402 61 431 145 746 503 844 961 25 115 25 371 0 486 -110
515 -491 899 -995 1002 -133 27 -376 27 -503 0z m485 -329 c168 -44 318 -133
443 -262 118 -122 194 -258 241 -431 25 -89 25 -357 0 -446 -62 -226 -194
-420 -374 -548 -368 -264 -885 -221 -1208 101 -125 124 -215 283 -257 451 -30
125 -30 313 0 438 88 357 367 627 732 707 112 25 309 20 423 -10z"/>
<path d="M805 2012 c-84 -55 -200 -163 -238 -223 -16 -24 -15 -32 15 -162 l32
-137 151 -50 c82 -27 156 -50 164 -50 7 0 80 53 162 118 l148 117 1 161 0 160
-155 62 c-86 34 -164 62 -173 62 -10 0 -58 -26 -107 -58z"/>
<path d="M1465 2007 l-150 -62 -3 -155 -2 -156 157 -126 157 -125 151 50 c82
27 155 54 161 59 6 4 14 23 17 41 3 17 17 78 30 134 l24 102 -53 65 c-91 110
-265 238 -320 235 -11 0 -86 -28 -169 -62z"/>
<path d="M502 1311 c-105 -126 -105 -127 -72 -257 22 -86 83 -225 109 -247 15
-14 291 -62 310 -55 5 1 42 45 82 97 l72 95 -44 178 c-24 99 -46 183 -49 187
-3 4 -70 30 -150 56 -80 26 -150 50 -156 52 -5 2 -52 -46 -102 -106z"/>
<path d="M1795 1367 l-149 -52 -46 -185 -47 -185 75 -97 c54 -71 81 -98 96
-97 12 0 82 10 156 22 l135 22 37 70 c44 83 86 205 94 278 l6 52 -92 110 c-51
61 -97 111 -104 112 -6 1 -78 -22 -161 -50z"/>
<path d="M1010 838 c-25 -34 -57 -78 -72 -98 l-27 -36 94 -144 c88 -138 94
-145 131 -152 60 -11 221 -9 289 3 l62 10 80 142 81 141 -74 98 -75 98 -222 0
-222 -1 -45 -61z"/>
</g>
</svg>
