<?xml version="1.0" standalone="no"?>
<!DOCTYPE svg PUBLIC "-//W3C//DTD SVG 20010904//EN"
 "http://www.w3.org/TR/2001/REC-SVG-20010904/DTD/svg10.dtd">
<svg version="1.0" xmlns="http://www.w3.org/2000/svg"
 width="256.000000pt" height="256.000000pt" viewBox="0 0 256.000000 256.000000"
 preserveAspectRatio="xMidYMid meet">

<g transform="translate(0.000000,256.000000) scale(0.100000,-0.100000)"
fill="#840d23" stroke="none">
<path d="M1069 2534 c-518 -93 -914 -482 -1025 -1006 -24 -114 -25 -360 -1
-481 49 -245 163 -461 339 -643 242 -250 559 -384 908 -384 609 0 1131 433
1245 1031 20 108 20 360 0 468 -74 388 -327 723 -681 900 -103 52 -237 96
-349 115 -110 19 -331 20 -436 0z m403 -448 c159 -31 286 -96 406 -210 82 -78
139 -155 183 -249 98 -210 98 -474 -1 -684 -98 -211 -290 -374 -522 -445 -71
-21 -88 -22 -629 -26 l-557 -3 -21 27 c-26 33 -26 45 -2 75 19 24 21 24 280
29 l261 5 -55 43 -55 42 -148 0 c-165 0 -192 8 -192 59 0 56 18 66 128 69
l100 4 -28 47 c-132 226 -148 519 -40 757 16 37 30 68 30 70 0 2 -78 4 -174 4
-192 0 -206 4 -206 60 0 58 10 60 252 60 l221 0 56 53 c31 28 72 64 91 79 l35
27 -175 1 c-123 0 -180 4 -188 12 -17 17 -15 68 5 90 15 17 42 18 444 18 326
0 445 -3 501 -14z"/>
<path d="M1225 1780 c-239 -49 -405 -252 -405 -495 0 -140 46 -250 145 -351
203 -206 529 -200 727 13 94 102 133 218 126 374 -5 92 -8 106 -46 183 -102
206 -329 320 -547 276z m35 -204 c0 -77 -2 -85 -21 -91 -12 -4 -39 -23 -60
-42 l-38 -35 -81 27 -81 27 17 26 c41 65 122 131 192 157 71 26 72 25 72 -69z
m205 63 c32 -12 77 -40 107 -69 55 -50 94 -105 81 -113 -5 -3 -40 -14 -79 -26
l-72 -21 -30 29 c-17 15 -45 34 -62 41 l-30 12 0 84 c0 96 -1 95 85 63z m-101
-270 c32 -15 59 -70 50 -104 -9 -35 -59 -75 -96 -75 -45 0 -88 48 -88 98 0 33
6 45 31 66 33 28 64 32 103 15z m-334 -52 c75 -23 75 -24 81 -63 3 -21 13 -53
22 -70 l16 -32 -47 -66 c-26 -36 -50 -66 -54 -66 -14 0 -79 108 -94 155 -15
50 -19 165 -6 165 4 0 41 -11 82 -23z m669 -55 c-3 -63 -10 -90 -36 -143 -18
-36 -41 -73 -52 -83 -19 -17 -21 -16 -70 50 -36 50 -47 72 -39 81 5 7 17 38
27 69 l17 58 64 22 c96 33 93 36 89 -54z m-254 -250 c25 -34 45 -64 45 -66 0
-2 -21 -13 -47 -23 -66 -25 -192 -23 -251 3 l-44 19 48 65 47 66 79 -1 79 -2
44 -61z"/>
</g>
</svg>
