<?xml version="1.0" standalone="no"?>
<!DOCTYPE svg PUBLIC "-//W3C//DTD SVG 20010904//EN"
 "http://www.w3.org/TR/2001/REC-SVG-20010904/DTD/svg10.dtd">
<svg version="1.0" xmlns="http://www.w3.org/2000/svg"
 width="256.000000pt" height="256.000000pt" viewBox="0 0 256.000000 256.000000"
 preserveAspectRatio="xMidYMid meet">

<g transform="translate(0.000000,256.000000) scale(0.100000,-0.100000)"
fill="#840d23" stroke="none">
<path d="M1170 2554 c-192 -22 -326 -61 -480 -140 -302 -155 -531 -426 -633
-750 -86 -272 -72 -604 35 -861 158 -381 463 -649 866 -760 92 -26 109 -27
317 -27 207 0 226 2 315 26 578 161 960 653 960 1237 0 617 -433 1142 -1034
1256 -81 16 -282 27 -346 19z m276 -473 c261 -54 491 -245 590 -489 46 -114
58 -180 58 -312 0 -147 -20 -235 -85 -367 -155 -315 -520 -500 -868 -439 -601
105 -886 788 -536 1281 188 265 518 393 841 326z"/>
<path d="M1290 2056 c0 -21 -5 -25 -32 -28 -28 -2 -33 -7 -33 -28 0 -20 6 -26
28 -28 22 -3 27 -8 27 -30 0 -37 -10 -47 -45 -47 -23 0 -31 -5 -33 -22 -3 -17
3 -26 22 -33 29 -11 31 -18 15 -54 -10 -21 -15 -23 -36 -15 -49 18 -72 -28
-28 -57 19 -12 22 -20 15 -33 -24 -42 -26 -43 -53 -30 -21 9 -30 9 -42 -1 -20
-17 -19 -25 7 -49 21 -20 21 -21 2 -43 -10 -13 -20 -24 -21 -26 0 -2 -13 4
-27 13 -14 10 -33 15 -41 11 -19 -7 -20 -44 -1 -65 12 -14 10 -19 -15 -39 -28
-23 -28 -23 -39 -2 -13 24 -42 26 -60 5 -10 -12 -9 -20 4 -40 16 -24 15 -25
-15 -41 -31 -16 -32 -15 -54 12 -20 25 -25 27 -40 14 -12 -10 -15 -22 -10 -46
5 -30 3 -33 -27 -39 -19 -5 -34 -3 -35 2 -2 6 -10 19 -18 29 -20 28 -51 6 -48
-34 3 -27 0 -30 -33 -34 -32 -4 -36 -1 -41 23 -10 50 -63 44 -63 -7 0 -19 -5
-24 -25 -24 -22 0 -25 -4 -25 -35 0 -32 2 -35 29 -35 25 0 30 -4 33 -27 2 -22
8 -28 28 -28 21 0 26 5 28 33 2 18 9 32 16 32 8 0 27 3 44 6 27 6 32 3 37 -19
13 -52 72 -39 61 14 -4 23 0 28 34 42 38 15 39 14 55 -9 30 -46 80 -20 57 30
-9 19 -5 24 29 44 38 22 38 22 49 2 13 -24 55 -27 64 -4 4 9 0 27 -8 40 -14
21 -13 24 17 47 29 22 35 23 52 11 43 -32 79 -2 50 42 -14 22 -14 26 7 54 15
21 27 28 38 24 8 -4 26 -7 40 -8 33 -1 40 36 10 57 -20 14 -21 17 -6 45 20 39
31 45 54 33 21 -11 52 3 52 24 0 7 -11 22 -25 32 -23 17 -24 20 -13 56 10 34
15 38 37 34 36 -7 51 2 51 29 0 17 -7 25 -25 30 -26 6 -31 26 -19 71 4 16 15
23 38 25 26 2 31 7 31 28 0 20 -6 26 -27 28 -21 3 -27 9 -30 30 -2 22 -9 28
-35 30 -29 3 -33 0 -33 -22z"/>
<path d="M1973 1423 c-7 -2 -13 -18 -13 -33 0 -33 -2 -35 -50 -44 -33 -6 -37
-4 -47 24 -6 16 -18 30 -26 30 -23 0 -40 -27 -33 -54 5 -20 1 -26 -26 -35 -44
-16 -56 -14 -63 9 -4 13 -15 20 -31 20 -30 0 -38 -18 -25 -52 8 -23 6 -27 -26
-42 -33 -16 -36 -15 -59 3 -42 33 -78 1 -49 -42 13 -21 12 -24 -19 -49 -29
-24 -36 -25 -46 -13 -17 20 -56 19 -64 -1 -4 -9 0 -24 9 -34 20 -22 19 -30
-10 -64 -20 -25 -26 -28 -39 -17 -20 17 -60 10 -64 -11 -2 -9 7 -25 19 -36
l21 -21 -21 -35 c-20 -32 -24 -34 -46 -24 -19 8 -28 8 -40 -2 -22 -18 -19 -36
10 -57 23 -17 24 -21 13 -55 -10 -34 -14 -37 -47 -35 -32 2 -36 -1 -36 -23 0
-16 8 -28 23 -35 16 -7 22 -18 22 -40 0 -41 -10 -53 -45 -57 -24 -2 -30 -8
-30 -28 0 -20 6 -26 30 -30 24 -4 30 -10 30 -30 0 -21 5 -26 33 -28 28 -3 32
0 32 22 0 21 5 25 33 28 27 2 32 7 32 28 0 20 -6 26 -27 28 -23 3 -28 8 -28
30 0 38 11 49 45 48 41 -1 49 38 11 56 -29 13 -31 17 -15 51 9 19 18 24 47 23
31 -1 38 3 40 21 3 17 -3 26 -23 33 -25 10 -25 10 -10 41 12 23 21 29 33 23
30 -12 54 -9 66 9 9 15 7 22 -12 37 -22 18 -22 20 -6 45 19 29 31 31 54 10 37
-34 69 18 34 56 -14 15 -13 19 14 38 29 20 29 20 47 1 22 -24 38 -25 55 -5 10
12 9 20 -4 40 -16 24 -15 25 16 41 30 16 32 15 48 -6 10 -13 24 -21 36 -18 15
3 19 11 17 40 -2 32 1 37 29 47 17 6 32 10 33 9 0 -2 6 -15 13 -30 20 -48 71
-24 58 27 -7 26 -5 26 51 29 10 1 19 -9 23 -24 4 -18 13 -25 30 -25 21 0 26 6
28 33 3 26 7 32 28 32 20 0 24 5 24 30 0 27 -3 30 -30 30 -25 0 -30 4 -30 23
0 13 -5 28 -12 35 -13 13 -16 13 -35 5z"/>
</g>
</svg>
