<?xml version="1.0" standalone="no"?>
<!DOCTYPE svg PUBLIC "-//W3C//DTD SVG 20010904//EN"
 "http://www.w3.org/TR/2001/REC-SVG-20010904/DTD/svg10.dtd">
<svg version="1.0" xmlns="http://www.w3.org/2000/svg"
 width="256.000000pt" height="256.000000pt" viewBox="0 0 256.000000 256.000000"
 preserveAspectRatio="xMidYMid meet">

<g transform="translate(0.000000,256.000000) scale(0.100000,-0.100000)"
fill="#196373" stroke="none">
<path d="M1058 2514 c-616 -111 -1060 -662 -1035 -1284 13 -327 131 -603 355
-834 180 -184 395 -302 652 -358 114 -25 344 -30 460 -9 535 95 948 513 1036
1049 19 117 14 339 -10 450 -52 238 -160 441 -327 617 -187 195 -427 323 -695
370 -107 19 -331 18 -436 -1z m744 -416 c17 -14 80 -196 70 -202 -4 -2 -248
-83 -542 -181 -294 -98 -536 -179 -538 -180 -1 -1 3 -14 9 -29 l12 -26 566 -2
566 -3 3 -409 c2 -354 0 -412 -13 -433 l-15 -23 -650 0 -649 0 -15 22 c-14 19
-16 71 -16 364 0 290 -2 343 -15 347 -8 4 -24 25 -36 48 -25 50 -22 107 9 148
17 23 17 30 6 61 -16 46 -17 87 -2 97 14 9 1207 411 1224 412 5 1 17 -5 26
-11z"/>
<path d="M1559 1979 l-55 -19 -16 -65 c-8 -36 -12 -65 -9 -65 4 0 35 9 69 21
66 22 62 17 88 122 8 33 1 33 -77 6z"/>
<path d="M1208 1862 c-26 -9 -51 -21 -56 -27 -10 -11 -34 -116 -29 -122 2 -2
33 7 67 19 63 23 64 24 77 73 22 84 21 85 -59 57z"/>
<path d="M860 1745 l-65 -22 -17 -63 c-10 -35 -16 -65 -15 -67 2 -1 33 7 69
19 l65 21 16 66 c8 36 15 66 14 67 -1 1 -31 -9 -67 -21z"/>
<path d="M626 1509 c-34 -27 -36 -81 -4 -103 44 -31 93 -15 111 37 9 25 -18
73 -45 81 -32 8 -32 8 -62 -15z"/>
<path d="M841 1408 c-8 -13 -23 -38 -34 -55 l-19 -33 74 0 c68 0 76 2 86 23 6
12 21 37 32 55 l22 32 -74 0 c-65 0 -75 -2 -87 -22z"/>
<path d="M1201 1382 c-17 -27 -31 -52 -31 -55 0 -4 31 -7 69 -7 l68 0 37 55
36 55 -74 0 -74 0 -31 -48z"/>
<path d="M1582 1388 c-16 -24 -32 -49 -36 -55 -5 -10 10 -13 66 -13 l73 0 33
50 c17 27 32 52 32 55 0 3 -31 5 -70 5 l-69 0 -29 -42z"/>
<path d="M1200 1006 l0 -155 120 75 c66 42 118 79 115 84 -3 4 -47 34 -97 65
-51 32 -103 65 -115 73 l-23 14 0 -156z"/>
</g>
</svg>
