<?xml version="1.0" standalone="no"?>
<!DOCTYPE svg PUBLIC "-//W3C//DTD SVG 20010904//EN"
 "http://www.w3.org/TR/2001/REC-SVG-20010904/DTD/svg10.dtd">
<svg version="1.0" xmlns="http://www.w3.org/2000/svg"
 width="256.000000pt" height="256.000000pt" viewBox="0 0 256.000000 256.000000"
 preserveAspectRatio="xMidYMid meet">

<g transform="translate(0.000000,256.000000) scale(0.100000,-0.100000)"
fill="#073660" stroke="none">
<path d="M1165 2524 c-302 -33 -557 -155 -771 -368 -187 -186 -305 -409 -349
-660 -20 -115 -20 -338 0 -447 86 -461 413 -834 856 -974 241 -76 543 -74 779
5 365 122 669 426 790 788 48 145 62 232 62 397 1 229 -38 392 -138 586 -175
338 -503 583 -876 654 -85 16 -282 26 -353 19z m665 -471 c0 -5 -38 -17 -85
-29 l-84 -21 -21 22 c-11 12 -20 24 -20 28 0 4 47 7 105 7 58 0 105 -3 105 -7z
m-255 -43 c26 -27 27 -30 9 -36 -10 -4 -52 -22 -93 -41 l-75 -33 -43 42 c-24
23 -43 45 -43 48 0 9 149 48 186 49 21 1 39 -8 59 -29z m462 -30 c24 -51 45
-345 26 -364 -7 -7 -343 322 -343 336 0 16 201 57 265 55 32 -2 42 -7 52 -27z
m-723 -59 l49 -49 -49 -31 c-56 -35 -67 -37 -84 -16 -16 19 -49 19 -56 0 -4
-8 1 -26 9 -38 14 -21 13 -24 -2 -34 -13 -8 -22 -6 -40 8 -18 15 -27 17 -37 8
-18 -15 -18 -34 2 -50 14 -12 14 -14 -1 -25 -14 -11 -22 -10 -41 3 -44 28 -74
-9 -38 -48 14 -16 14 -18 -4 -28 -15 -8 -23 -7 -32 4 -16 19 -34 19 -50 0 -10
-13 -9 -19 5 -35 17 -19 18 -22 2 -37 -13 -13 -19 -14 -29 -5 -33 33 -74 -3
-43 -38 15 -16 16 -22 5 -35 -9 -11 -16 -13 -24 -5 -15 15 -46 12 -53 -6 -3
-8 0 -26 7 -40 11 -19 11 -27 2 -36 -9 -9 -15 -9 -24 0 -33 33 -74 -3 -43 -38
20 -23 19 -28 -30 -104 l-37 -58 -48 47 c-54 53 -54 49 -5 145 90 177 239 348
401 461 44 31 221 128 234 129 3 0 28 -22 54 -49z m541 -191 l200 -200 -17
-77 c-9 -43 -21 -91 -27 -107 l-12 -30 -119 119 c-83 83 -123 116 -134 112
-33 -13 -12 -46 109 -167 l125 -125 -34 -72 c-68 -142 -178 -287 -296 -390
-107 -93 -303 -213 -350 -213 -18 0 -570 550 -570 568 0 10 60 113 76 131 3 3
10 -1 16 -7 16 -16 45 -15 51 2 3 8 -3 26 -13 39 -17 21 -18 27 -6 36 11 9 19
9 34 0 40 -25 73 21 37 51 -11 9 -12 17 -4 32 10 18 12 18 28 4 38 -34 78 -2
44 36 -16 17 -16 20 0 35 13 13 20 14 29 5 15 -15 45 -16 53 -2 4 6 0 22 -9
35 -14 21 -14 25 0 36 11 9 18 9 26 1 7 -7 22 -12 35 -12 25 0 30 19 13 50
-15 29 14 48 40 25 11 -10 26 -15 35 -12 17 7 20 42 5 52 -5 3 -10 10 -10 15
0 13 33 21 44 10 14 -14 53 -13 59 3 2 6 0 20 -5 30 -5 10 -8 20 -6 22 2 1 26
16 53 33 l50 31 132 -130 c72 -72 138 -129 145 -127 36 12 17 44 -98 159 -81
82 -115 122 -108 129 14 14 145 69 164 70 8 0 105 -90 215 -200z m-1242 -680
c-20 -47 -39 -87 -40 -89 -2 -3 -18 9 -35 27 l-32 31 18 78 c10 43 23 89 28
102 l9 25 45 -45 44 -45 -37 -84z m611 -501 c-2 -4 -47 -18 -100 -30 l-95 -22
-99 97 c-88 87 -101 96 -119 86 -12 -6 -21 -16 -21 -22 0 -5 34 -45 76 -88
l76 -78 -54 -7 c-61 -7 -251 10 -306 28 l-37 13 3 59 c3 59 37 233 47 244 3 2
34 -23 69 -58 42 -42 70 -62 82 -59 40 7 26 38 -51 118 -50 50 -75 84 -72 94
3 8 20 49 38 91 l32 77 268 -268 c147 -147 266 -271 263 -275z m-698 248 c-22
-86 -23 -88 -29 -50 -9 49 -9 112 -1 153 l7 32 22 -24 23 -23 -22 -88z"/>
</g>
</svg>
