<?xml version="1.0" standalone="no"?>
<!DOCTYPE svg PUBLIC "-//W3C//DTD SVG 20010904//EN"
 "http://www.w3.org/TR/2001/REC-SVG-20010904/DTD/svg10.dtd">
<svg version="1.0" xmlns="http://www.w3.org/2000/svg"
 width="256.000000pt" height="256.000000pt" viewBox="0 0 256.000000 256.000000"
 preserveAspectRatio="xMidYMid meet">

<g transform="translate(0.000000,256.000000) scale(0.100000,-0.100000)"
fill="#a51830" stroke="none">
<path d="M1055 2534 c-533 -104 -939 -510 -1030 -1031 -19 -111 -19 -345 0
-456 73 -420 365 -784 762 -951 164 -69 302 -96 499 -96 266 0 483 63 696 203
273 177 456 435 546 765 24 90 26 112 26 307 0 195 -2 217 -26 307 -136 500
-508 853 -1001 949 -117 23 -363 25 -472 3z m365 -785 c62 -140 116 -265 121
-277 8 -22 28 1 215 250 217 288 253 331 212 258 -14 -25 -114 -219 -223 -432
-110 -214 -201 -388 -205 -388 -3 0 -59 140 -124 311 l-120 310 -36 -93 c-21
-51 -77 -193 -125 -316 l-88 -223 -54 103 c-112 211 -384 762 -370 748 8 -8
103 -131 211 -272 108 -142 200 -260 205 -262 4 -3 64 123 132 279 76 177 126
280 130 272 5 -7 58 -128 119 -268z m489 -270 c-111 -288 -204 -532 -206 -541
-5 -17 8 -18 176 -18 99 0 181 -2 181 -4 0 -3 -20 -48 -45 -101 -41 -88 -47
-97 -68 -91 -43 10 -212 35 -262 38 l-50 2 -44 -117 c-24 -64 -47 -117 -51
-117 -3 0 -30 54 -59 120 l-53 120 -63 0 c-34 0 -96 -3 -137 -6 l-76 -7 -55
-121 c-55 -118 -56 -120 -67 -91 -53 143 -64 171 -70 178 -9 10 -238 -41 -390
-87 l-115 -34 35 30 c50 42 195 111 325 154 l112 36 -219 581 c-120 319 -217
581 -215 583 2 2 128 -249 281 -559 219 -442 280 -558 286 -542 29 73 232 550
234 553 2 1 45 -95 96 -215 50 -120 101 -239 112 -265 23 -54 48 -63 72 -25 7
12 130 259 272 549 143 289 260 525 261 524 2 -1 -88 -238 -198 -527z"/>
<path d="M1253 978 c-23 -51 -40 -94 -39 -95 2 -2 37 2 79 8 86 13 83 1 30
117 l-28 62 -42 -92z"/>
</g>
</svg>
