<svg id="Layer_1" data-name="Layer 1" xmlns="http://www.w3.org/2000/svg" xmlns:xlink="http://www.w3.org/1999/xlink" viewBox="0 0 151 193.91"><defs><style>.cls-1{fill:#9e1f63;}.cls-2{fill:#eb008b;}.cls-3{fill:url(#linear-gradient);}.cls-4{fill:url(#linear-gradient-2);}.cls-5{fill:url(#linear-gradient-3);}.cls-6{fill:#fff;stroke-miterlimit:10;stroke-width:1.75px;stroke:url(#linear-gradient-4);}</style><linearGradient id="linear-gradient" x1="28.58" y1="163.98" x2="91.06" y2="163.98" gradientUnits="userSpaceOnUse"><stop offset="0" stop-color="#9e1f63"/><stop offset="0.21" stop-color="#c60f78"/><stop offset="0.39" stop-color="#e10486"/><stop offset="0.49" stop-color="#eb008b"/><stop offset="0.65" stop-color="#d60880"/><stop offset="0.99" stop-color="#a01e64"/><stop offset="1" stop-color="#9e1f63"/></linearGradient><linearGradient id="linear-gradient-2" x1="28.42" y1="176.45" x2="138.23" y2="176.45" gradientUnits="userSpaceOnUse"><stop offset="0" stop-opacity="0.22"/><stop offset="0.35"/><stop offset="0.74" stop-opacity="0.2"/><stop offset="1" stop-opacity="0.55"/></linearGradient><linearGradient id="linear-gradient-3" x1="28.42" y1="174.56" x2="138.23" y2="174.56" xlink:href="#linear-gradient"/><linearGradient id="linear-gradient-4" x1="7.28" y1="165.16" x2="49.67" y2="165.16" xlink:href="#linear-gradient"/></defs><title>template frame and textbox</title><path class="cls-1" d="M146.64,193.57H4.36V.16H146.64ZM9.54,187.79H141.45V5.35H9.54Z"/><path class="cls-2" d="M12.77,184.61V8.5H138.22V184.61Zm1.86-1.9H136.36V10.39H14.63Z"/><polygon class="cls-3" points="91.06 172.69 28.58 172.69 28.58 155.26 83.25 155.84 91.06 172.69"/><polygon class="cls-4" points="138.23 185.16 28.42 185.16 28.42 167.73 130.42 168.31 138.23 185.16"/><polygon class="cls-5" points="138.23 183.28 28.42 183.28 28.42 165.84 130.42 166.42 138.23 183.28"/><polygon class="cls-6" points="28.47 184.07 8.55 165.16 28.47 146.26 48.4 165.16 28.47 184.07"/></svg>